<?xml version="1.0" encoding="UTF-8"?>
<!DOCTYPE svg PUBLIC "-//W3C//DTD SVG 1.1//EN" "http://www.w3.org/Graphics/SVG/1.1/DTD/svg11.dtd">
<!-- Creator: CorelDRAW X8 -->
<svg xmlns="http://www.w3.org/2000/svg" xml:space="preserve" width="210mm" height="210mm" version="1.1" style="shape-rendering:geometricPrecision; text-rendering:geometricPrecision; image-rendering:optimizeQuality; fill-rule:evenodd; clip-rule:evenodd"
viewBox="0 0 21160 21160"
 xmlns:xlink="http://www.w3.org/1999/xlink">
 <defs>
  <style type="text/css">
   <![CDATA[
    .fil0 {fill:black}
   ]]>
  </style>
 </defs>
 <g id="Слой_x0020_1">
  <metadata id="CorelCorpID_0Corel-Layer"/>
  <path class="fil0" d="M21160 2267l0 16626c0,1252 -1015,2267 -2267,2267l-16626 0c-1252,0 -2267,-1015 -2267,-2267l0 -16626c0,-1252 1015,-2267 2267,-2267l16626 0c1252,0 2267,1015 2267,2267zm-2267 16343l0 -16059c0,-156 -128,-284 -283,-284l-16059 0c-156,0 -284,128 -284,284l0 16059c0,155 128,283 284,283l16059 0c155,0 283,-128 283,-283zm-4572 -12807l1068 1068c221,221 221,582 0,802l-2939 2939 2939 2939c221,221 221,581 0,802l-1068 1068c-221,221 -581,221 -802,0l-2939 -2939 -2939 2939c-220,221 -581,221 -802,0l-1068 -1068c-221,-221 -221,-581 0,-802l2939 -2939 -2939 -2939c-221,-220 -221,-581 0,-802l1068 -1068c221,-221 582,-221 802,0l2939 2939 2939 -2939c221,-221 581,-221 802,0z"/>
 </g>
</svg>
